<svg width="59" height="55" viewBox="0 0 59 55" fill="none" xmlns="http://www.w3.org/2000/svg">
<circle cx="27.8222" cy="27.375" r="13.3696" transform="rotate(-10.0451 27.8222 27.375)" fill="#FF4789"/>
<circle cx="13.5379" cy="35.563" r="1.20413" transform="rotate(-10.0451 13.5379 35.563)" fill="#FF4789"/>
<circle cx="33.7147" cy="9.67163" r="1.20413" transform="rotate(-10.0451 33.7147 9.67163)" fill="#FF4789"/>
<circle cx="50.9086" cy="9.22454" r="1.05361" transform="rotate(-10.0451 50.9086 9.22454)" fill="#FF4789"/>
<circle cx="44.6617" cy="30.0499" r="1.20413" transform="rotate(-10.0451 44.6617 30.0499)" fill="#FF4789"/>
<circle cx="16.1939" cy="16.9024" r="0.752579" transform="rotate(-10.0451 16.1939 16.9024)" fill="#FF4789"/>
<circle cx="33.3351" cy="42.9092" r="0.752579" transform="rotate(-10.0451 33.3351 42.9092)" fill="#FF4789"/>
<rect x="25.3453" y="43.5603" width="1.80619" height="7.82682" rx="0.903095" transform="rotate(3.26984 25.3453 43.5603)" fill="#FF4789"/>
<rect x="39.1066" y="40.1105" width="1.80619" height="7.82682" rx="0.903095" transform="rotate(-47.9881 39.1066 40.1105)" fill="#FF4789"/>
<rect x="23.6671" y="4.72565" width="1.80619" height="7.82682" rx="0.903095" transform="rotate(-10.0451 23.6671 4.72565)" fill="#FF4789"/>
<rect x="48.8621" y="9.73987" width="1.80619" height="12.3423" rx="0.903095" transform="rotate(49.9549 48.8621 9.73987)" fill="#FF4789"/>
<path d="M12.08 23.3432C12.5782 23.3684 12.9615 23.7927 12.9363 24.2908V24.2908C12.9111 24.7889 12.4868 25.1723 11.9887 25.1471L3.69422 24.7271C3.19609 24.7019 2.81273 24.2776 2.83795 23.7795V23.7795C2.86317 23.2814 3.28743 22.898 3.78556 22.9232L12.08 23.3432Z" fill="#FF4789"/>
<rect x="16.2189" y="38.451" width="1.80619" height="5.04526" rx="0.903095" transform="rotate(43.7295 16.2189 38.451)" fill="#FF4789"/>
<rect x="14.7042" y="14.1553" width="1.80619" height="5.04526" rx="0.903095" transform="rotate(123.995 14.7042 14.1553)" fill="#FF4789"/>
</svg>
